<svg width="131" height="87" xmlns="http://www.w3.org/2000/svg"><path d="M106.561 45.862c-3.123.724-7.387 1.043-11.55 1.576-.394.042-.79.06-1.187.055a1.456 1.456 0 01-1.368-1.181c-.229-1.914.755-3.577 2.484-3.922 1.73-.344 3.655-.593 5.5-.818a132.109 132.109 0 0021.022-4.086c2.395-.692 3.142-.1 3.216 2.361a29.656 29.656 0 01-1.28 9.728c-1.527 4.898-3.218 9.736-4.88 14.594a5.511 5.511 0 01-1.035 1.657 1.266 1.266 0 01-1.434.387 1.353 1.353 0 01-.984-1.114 5.077 5.077 0 01.147-1.936c.499-1.77 1.222-3.475 1.784-5.224a768.753 768.753 0 003.42-10.913 1.402 1.402 0 00-.22-.652 1.939 1.939 0 00-.621.364 56.02 56.02 0 01-10.625 10.548 58.456 58.456 0 01-16.704 8.944c-2.865 1.009-5.716 2.09-8.614 3.013a50.668 50.668 0 01-15.992 2.632 30.028 30.028 0 01-9.723-1.69A18.846 18.846 0 0146.243 59.15c-.196-.489-.33-1.006-.572-1.47a1.65 1.65 0 00-1.59-.979c-1.715.074-3.43.232-5.147.29-8.937.314-16.591-2.925-23.164-8.666a44.063 44.063 0 01-12.36-17.56 38.736 38.736 0 01-1.304-3.712 3.621 3.621 0 011.035-3.614c.316-.343.78-.511 1.244-.45.463.063.866.346 1.076.76.639 1.55 1.195 3.198 1.886 4.754A41.483 41.483 0 0021.192 45.89a34.918 34.918 0 007.27 3.992c4.777 1.932 9.746 2.205 14.814 1.638a1.282 1.282 0 001.232-1.294c.1-.915.16-1.83.268-2.746 1.202-9.955 6.691-16.594 15.957-20.336a14.749 14.749 0 016.952-1.284c1.19.078 2.366.3 3.501.658a7.132 7.132 0 014.922 6.924 14.642 14.642 0 01-2.713 8.517 22.232 22.232 0 01-4.63 4.857 44.214 44.214 0 01-15.007 7.87c-1.005.296-1.992.688-2.973 1.063a.991.991 0 00-.47.596.978.978 0 00.09.75c.129.226.25.461.387.686a17.301 17.301 0 0010.94 7.912c4.442 1.154 8.909 1.013 13.4.475A59.935 59.935 0 0087.4 62.947c2.878-.986 5.706-2.096 8.578-3.114a23.316 23.316 0 006.309-3.293 367.695 367.695 0 0010.89-8.575 28.082 28.082 0 002.932-3.18.44.44 0 00-.068-.347.378.378 0 00-.245-.22c-.526.027-1.05.084-1.569.17-2.223.408-4.432.845-7.666 1.474zm-54.686 4.13a28.972 28.972 0 007.113-2.454 51.55 51.55 0 0010.552-6.97 7.425 7.425 0 002.493-3.488 4.518 4.518 0 00-.343-3.986 4.57 4.57 0 00-3.383-2.167 10.958 10.958 0 00-5.105.373c-1.373.485-2.76.946-4.09 1.523-6.22 2.706-9.611 7.6-10.61 14.176-.072.781-.064 1.568.026 2.346.04.326.215.62.483.813.267.192.604.265.929.201.656-.094 1.301-.244 1.935-.367z" fill="#CCD6DB" fill-rule="nonzero"/></svg>