<svg width="114" height="67" xmlns="http://www.w3.org/2000/svg"><g fill="#CCD6DB" fill-rule="nonzero"><path d="M108.496 37.908a6.618 6.618 0 003.512-2.4 2.51 2.51 0 00-.27-3.503 8.848 8.848 0 00-1.727-1.291 26.873 26.873 0 01-6.678-5.455c-4.335-4.445-8.655-8.902-13.017-13.31a96.368 96.368 0 00-4.725-4.456c-1.46-1.282-2.801-1.133-4.148.344a4.397 4.397 0 00-.706 1.086 1.805 1.805 0 00.167 2.03c.557.658 1.22 1.23 1.835 1.833l17.73 17.787c.294.316.564.654.807 1.01a.56.56 0 01.115.4c-.13.234-.338.416-.587.515-2.448.035-4.905.072-7.354.004-5.486-.148-10.98-.293-16.465-.534a4.051 4.051 0 00-4.144 2.495 1.508 1.508 0 001.035 2.326c.853.113 1.712.18 2.572.202 6.351.21 12.71.38 19.016.63 2.74.098 5.467.312 8.214.465 1.603.233 3.235.173 4.818-.178z"/><path d="M49.186 21.456a64.469 64.469 0 00-17.55 8.298 180.636 180.636 0 00-18.238 13.9 71.424 71.424 0 00-5.458 5.554 5.037 5.037 0 00-.934 1.891 1.36 1.36 0 00.584 1.512c.475.365 1.14.35 1.598-.035a13.917 13.917 0 001.581-1.467c1.324-1.318 2.556-2.76 3.971-3.954a147.802 147.802 0 0120.395-15.326 55.153 55.153 0 0132.708-7.99c2.448.142 4.858.55 7.308.832a28.781 28.781 0 018.314 2.308c.789.356 1.573.731 2.39 1.023 1.425.5 3-.149 3.657-1.509a1.803 1.803 0 00-.572-2.651 27.04 27.04 0 00-7.22-2.885c-7.991-1.64-15.96-2.517-24.074-1.242a54.87 54.87 0 00-8.46 1.74z"/></g></svg>