<svg xmlns="http://www.w3.org/2000/svg" width="2663" height="1499"><g fill="none" fill-rule="evenodd"><path fill="#000" d="M2388 10c16.569 0 30 13.431 30 30v1432H245V40c0-16.569 13.431-30 30-30h2113zm-45 60H320c-8.18 0-14.83 6.547-15 14.686V1338c0 8.18 6.547 14.83 14.686 15H2343c8.18 0 14.83-6.547 15-14.686V85c0-8.18-6.547-14.83-14.686-15H2343z"/><path stroke="#9FA2A5" stroke-width="10" d="M2388 5c9.665 0 18.415 3.918 24.749 10.251C2419.082 21.585 2423 30.335 2423 40h0v1437H240V40c0-9.665 3.918-18.415 10.251-24.749C256.585 8.918 265.335 5 275 5h0z"/><path fill="#D8D8D8" d="M0 1413h2663v55H0z"/><path fill="#9FA2A5" d="M0 1468h2663c0 17.12-13.88 31-31 31H31c-16.95 0-30.722-13.603-31-30.487V1468zM1166 1413h356l-7.8 16.088a30 30 0 01-26.995 16.912h-286.41a30 30 0 01-26.995-16.912L1166 1413z"/></g></svg>