<svg xmlns="http://www.w3.org/2000/svg" xmlns:xlink="http://www.w3.org/1999/xlink" width="141" height="103"><defs><filter id="a" width="113.4%" height="130.3%" x="-6.7%" y="-9.1%" filterUnits="objectBoundingBox"><feMorphology in="SourceAlpha" operator="dilate" radius="2" result="shadowSpreadOuter1"/><feOffset dy="8" in="shadowSpreadOuter1" result="shadowOffsetOuter1"/><feComposite in="shadowOffsetOuter1" in2="SourceAlpha" operator="out" result="shadowOffsetOuter1"/><feColorMatrix in="shadowOffsetOuter1" values="0 0 0 0 0 0 0 0 0 0 0 0 0 0 0 0 0 0 0.112205616 0"/></filter><path id="b" d="M43.141 0c23.826 0 43.141 14.775 43.141 33 0 4.862-1.375 9.48-3.843 13.635l6.837 10.614a3 3 0 01-3.298 4.523l-14.503-3.886C63.895 62.939 53.985 66 43.14 66 19.315 66 0 51.225 0 33S19.315 0 43.141 0z"/></defs><g fill="none" fill-rule="evenodd"><path fill="#FFF" stroke="#4C4BFF" stroke-width="4" d="M79.255 24.643C56.24 30.81 41.407 50.08 46.125 67.685c1.258 4.696 3.78 8.8 7.24 12.176L49.51 91.882a3 3 0 004.356 3.515l13.003-7.507c8.63 2.92 18.994 3.311 29.469.504 23.014-6.166 37.847-25.436 33.13-43.04-4.717-17.605-27.198-26.877-50.212-20.71z"/><g transform="translate(2 2)"><use fill="#000" filter="url(#a)" xlink:href="#b"/><use fill="#FFF" stroke="#4C4BFF" stroke-width="4" xlink:href="#b"/></g><g fill="#00DB6B" transform="translate(23 31)"><ellipse cx="4.61" cy="4.5" rx="4.61" ry="4.5"/><ellipse cx="21" cy="4.5" rx="4.61" ry="4.5"/><ellipse cx="37.39" cy="4.5" rx="4.61" ry="4.5"/></g></g></svg>