<svg width="192" height="129" xmlns="http://www.w3.org/2000/svg"><defs><filter x="-18.4%" y="-18.4%" width="136.7%" height="137.8%" filterUnits="objectBoundingBox" id="a"><feOffset dx="1" dy="6" in="SourceAlpha" result="shadowOffsetOuter1"/><feColorMatrix values="0 0 0 0 0 0 0 0 0 0 0 0 0 0 0 0 0 0 0.1 0" in="shadowOffsetOuter1" result="shadowMatrixOuter1"/><feMerge><feMergeNode in="shadowMatrixOuter1"/><feMergeNode in="SourceGraphic"/></feMerge></filter></defs><g transform="translate(15 15)" fill="none" fill-rule="evenodd"><rect stroke="#5857FF" stroke-width="4" x="55.016" y="4.516" width="119" height="88" rx="2"/><g filter="url(#a)"><path d="M21.708 55.137h55a2 2 0 012 2v7.68a2 2 0 01-.537 1.362c-7.423 7.972-17.27 11.958-29.538 11.958-12.279 0-21.765-3.992-28.458-11.976a2 2 0 01-.467-1.285v-7.739a2 2 0 012-2z" stroke="#5857FF" stroke-width="4" fill="#FFF"/><path stroke="#5857FF" stroke-width="3" stroke-linecap="square" d="M92.208 48.137v16"/><path d="M.86 49.139l47.935-17.563a1 1 0 01.688 0l47.935 17.563h0l-48.005 13.7a1 1 0 01-.549 0L.86 49.139h0z" stroke="#5857FF" stroke-width="4" fill="#FFF"/><path fill="#5857FF" d="M92 61.62l6 12H86z"/></g><rect fill="#BDE1FF" x="121.016" y="64.516" width="8" height="18" rx="2"/><rect fill="#BDE1FF" x="108.016" y="72.516" width="8" height="10" rx="2"/><rect fill="#BDE1FF" x="133.016" y="53.516" width="8" height="29" rx="2"/><rect fill="#BDE1FF" x="146.016" y="41.516" width="8" height="41" rx="2"/><path stroke="#00DB6B" stroke-width="3" stroke-linecap="round" d="M149 22l-16 20-6-3-16.984 23.516"/><circle fill="#00DB6B" cx="149.016" cy="22" r="5"/><circle fill="#BDE1FF" cx="88" cy="17" r="4"/><circle fill="#5857FF" cx="77" cy="17" r="4"/><circle fill="#00DB6B" cx="66" cy="17" r="4"/></g></svg>